{"title":"Fight.to.the.Finish.2016.DVDRip.x264-STANDARD","uid":13406262,"size":807754293,"categoryP":"video","categoryS":"movies","magnet":"?xt=urn:btih:9516475495ac572869ae1278b192aee41c75ab67&amp;dn=Fight.to.the.Finish.2016.DVDRip.x264-STANDARD&amp;tr=udp%3A%2F%2Ftracker.leechers-paradise.org%3A6969&amp;tr=udp%3A%2F%2Fzer0day.ch%3A1337&amp;tr=udp%3A%2F%2Fopen.demonii.com%3A1337&amp;tr=udp%3A%2F%2Ftracker.coppersurfer.tk%3A6969&amp;tr=udp%3A%2F%2Fexodus.desync.com%3A6969","seeders":1,"leechers":0,"uploader":".BONE.","files":1,"time":1454442058,"description":"[center][img]http://s11.postimg.org/6zhpsuen7/image.jpg[/img]\r\n \r\nFight.to.the.Finish.2016.DVDRip.x264-STANDARD\r\n \r\nSOURCE USED - R1.DVDR\r\n \r\nWORK DONE - increased min gain a touch it was way too dark ;) enjoy\r\n \r\n[url]http://www.imdb.com/title/tt3152288/[/url]\r\n \r\nA young amateur fighter makes an enemy with a hardened thug when he gets in-between his next-door neighbor and her abusive ex- boyfriend. As his personal life becomes threatened, he realizes he must finish the fight that he started, but this time they'll settle it in the ring for the championship.\r\n \r\nGeneral\r\nComplete name               : Fight.to.the.Finish.2016.DVDRip.x264-STANDARD.mp4\r\nFormat                      : MPEG-4\r\nFormat profile              : Base Media\r\nCodec ID                    : isom (isom/avc1)\r\nFile size                   : 770 MiB\r\nDuration                    : 1h 34mn\r\nOverall bit rate mode       : Variable\r\nOverall bit rate            : 1 137 Kbps\r\nEncoded date                : UTC 2016-02-02 10:13:30\r\nTagged date                 : UTC 2016-02-02 10:13:30\r\n \r\nVideo\r\nID                          : 1\r\nFormat                      : AVC\r\nFormat/Info                 : Advanced Video Codec\r\nFormat profile              :   \r\nFormat settings, CABAC      : Yes\r\nFormat settings, ReFrames   : 3 frames\r\nFormat settings, GOP        : M=4, N=23\r\nCodec ID                    : avc1\r\nCodec ID/Info               : Advanced Video Coding\r\nDuration                    : 1h 34mn\r\nBit rate mode               : Variable\r\nBit rate                    : 820 Kbps\r\nMaximum bit rate            : 40.0 Mbps\r\nWidth                       : 720 pixels\r\nHeight                      : 400 pixels\r\nDisplay aspect ratio        : 16:9\r\nFrame rate mode             : Constant\r\nFrame rate                  : 23.976 (24000/1001) fps\r\nColor space                 : YUV\r\nChroma subsampling          : 4:2:0\r\nBit depth                   : 8 bits\r\nScan type                   : Progressive\r\nBits/(Pixel*Frame)          : 0.119\r\nStream size                 : 555 MiB (72%)\r\nWriting library             : x264 core 148 r2638 7599210\r\n \r\nAudio\r\nID                          : 2\r\nFormat                      : AAC\r\nFormat/Info                 : Advanced Audio Codec\r\nFormat profile              : LC\r\nCodec ID                    : 40\r\nDuration                    : 1h 34mn\r\nBit rate mode               : Variable\r\nBit rate                    : 313 Kbps\r\nMaximum bit rate            : 414 Kbps\r\nChannel(s)                  : 6 channels\r\nChannel positions           : Front: L C R, Side: L R, LFE\r\nSampling rate               : 48.0 KHz\r\nFrame rate                  : 46.875 fps (1024 spf)\r\nCompression mode            : Lossy\r\nStream size                 : 212 MiB (28%)\r\nLanguage                    : English\r\nEncoded date                : UTC 2016-02-02 08:56:48\r\nTagged date                 : UTC 2016-02-02 10:15:38\r\n  \nhttp://i.imgur.com/D0NIK58.png \nhttp://i.imgur.com/GvNSP4p.png \nhttp://i.imgur.com/lRlfLw2.png \nhttp://i.imgur.com/yiK4DSB.png","torrent":{"xt":"urn:btih:9516475495ac572869ae1278b192aee41c75ab67","amp;dn":"Fight.to.the.Finish.2016.DVDRip.x264-STANDARD","amp;tr":["udp%3A%2F%2Ftracker.leechers-paradise.org%3A6969","udp%3A%2F%2Fzer0day.ch%3A1337","udp%3A%2F%2Fopen.demonii.com%3A1337","udp%3A%2F%2Ftracker.coppersurfer.tk%3A6969","udp%3A%2F%2Fexodus.desync.com%3A6969"],"infoHash":"9516475495ac572869ae1278b192aee41c75ab67","infoHashBuffer":{"type":"Buffer","data":[149,22,71,84,149,172,87,40,105,174,18,120,177,146,174,228,28,117,171,103]},"announce":[],"urlList":[]}}